<?xml version="1.0" encoding="UTF-8" standalone="no"?>
<svg width="863px" height="2835px" viewBox="0 0 863 2835" version="1.1" xmlns="http://www.w3.org/2000/svg" xmlns:xlink="http://www.w3.org/1999/xlink">
    <defs/>
    <g id="Page-1" stroke="none" stroke-width="1" fill="none" fill-rule="evenodd">
        <g id="path" transform="translate(0.000000, -167.000000)" fill="#CED0DA">
            <path d="M861.873,3001.51 C861.321,3001.51 860.873,3001.062 860.873,3000.51 C860.873,2920.644 829.771,2845.559 773.298,2789.085 C716.824,2732.611 641.738,2701.51 561.873,2701.51 L301.873,2701.51 C221.473,2701.51 145.885,2670.2 89.034,2613.349 C32.183,2556.498 0.873,2480.91 0.873,2400.511 C0.873,2320.11 32.183,2244.522 89.034,2187.671 C145.885,2130.819 221.473,2099.51 301.873,2099.51 L561.873,2099.51 C641.738,2099.51 716.824,2068.408 773.298,2011.935 C829.771,1955.461 860.873,1880.376 860.873,1800.511 C860.873,1720.645 829.771,1645.559 773.298,1589.085 C716.824,1532.611 641.739,1501.51 561.873,1501.51 L301.873,1501.51 C221.473,1501.51 145.885,1470.2 89.034,1413.349 C32.183,1356.498 0.873,1280.91 0.873,1200.511 C0.873,1120.11 32.183,1044.522 89.034,987.671 C145.885,930.819 221.473,899.51 301.873,899.51 L561.873,899.51 C641.738,899.51 716.824,868.408 773.298,811.935 C829.771,755.461 860.873,680.376 860.873,600.511 C860.873,520.645 829.771,445.559 773.298,389.085 C716.824,332.611 641.739,301.51 561.873,301.51 L301.873,301.51 C201.725,301.51 108.419,251.899 52.28,168.803 C51.971,168.345 52.091,167.724 52.549,167.414 C53.008,167.106 53.628,167.227 53.936,167.684 C109.703,250.229 202.39,299.51 301.873,299.51 L561.873,299.51 C642.274,299.51 717.861,330.819 774.712,387.671 C831.563,444.521 862.873,520.109 862.873,600.51 C862.873,680.91 831.563,756.498 774.712,813.349 C717.861,870.2 642.274,901.51 561.873,901.51 L301.873,901.51 C222.008,901.51 146.922,932.611 90.448,989.085 C33.975,1045.559 2.873,1120.643 2.873,1200.51 C2.873,1280.376 33.975,1355.461 90.448,1411.935 C146.922,1468.408 222.008,1499.51 301.873,1499.51 L561.873,1499.51 C642.274,1499.51 717.861,1530.819 774.712,1587.671 C831.563,1644.521 862.873,1720.109 862.873,1800.51 C862.873,1880.91 831.563,1956.498 774.712,2013.349 C717.861,2070.2 642.274,2101.51 561.873,2101.51 L301.873,2101.51 C222.008,2101.51 146.922,2132.611 90.448,2189.085 C33.975,2245.559 2.873,2320.643 2.873,2400.51 C2.873,2480.376 33.975,2555.461 90.448,2611.935 C146.922,2668.408 222.008,2699.51 301.873,2699.51 L561.873,2699.51 C642.274,2699.51 717.861,2730.819 774.712,2787.671 C831.563,2844.521 862.873,2920.109 862.873,3000.51 C862.873,3001.062 862.425,3001.51 861.873,3001.51" id="Fill-1"/>
        </g>
    </g>
</svg>